<?xml version="1.0" standalone="no"?>
<!DOCTYPE svg PUBLIC "-//W3C//DTD SVG 20010904//EN"
 "http://www.w3.org/TR/2001/REC-SVG-20010904/DTD/svg10.dtd">
<svg version="1.0" xmlns="http://www.w3.org/2000/svg"
 width="278.000000pt" height="278.000000pt" viewBox="0 0 278.000000 278.000000"
 preserveAspectRatio="xMidYMid meet">
<metadata>
Created by potrace 1.11, written by Peter Selinger 2001-2013
</metadata>
<g transform="translate(0.000000,278.000000) scale(0.100000,-0.100000)"
fill="#000000" stroke="none">
<path d="M554 2417 c-125 -129 -215 -256 -287 -407 -42 -88 -89 -210 -80 -210
3 0 0 -7 -7 -15 -7 -8 -10 -15 -7 -15 3 0 0 -21 -8 -47 -8 -27 -17 -70 -21
-98 -3 -27 -9 -70 -13 -95 -13 -84 -4 -354 14 -420 2 -8 7 -29 10 -46 2 -17
16 -69 29 -115 65 -224 190 -439 348 -601 56 -57 67 -62 118 -58 51 4 104 64
95 109 -2 9 -4 21 -4 27 -1 7 -35 51 -76 99 -82 96 -124 156 -178 255 -33 59
-90 204 -103 262 -35 150 -39 185 -38 343 1 154 8 208 50 355 38 135 146 336
233 437 8 9 28 -5 77 -54 75 -75 74 -58 10 -154 -64 -96 -130 -243 -153 -344
-15 -68 -28 -202 -26 -275 3 -114 3 -104 20 -195 40 -210 148 -405 313 -563
58 -57 172 -142 188 -142 6 0 12 -3 14 -7 5 -11 123 -67 193 -91 99 -35 194
-52 305 -57 72 -2 108 11 131 49 29 48 25 90 -13 131 -31 32 -37 35 -113 39
-234 15 -430 104 -587 269 -104 109 -195 280 -215 402 -3 17 -9 50 -13 75 -23
123 10 339 72 470 35 72 89 160 100 160 4 0 34 -28 68 -62 58 -60 59 -63 44
-85 -118 -180 -143 -413 -68 -613 70 -184 243 -346 432 -406 70 -22 108 -27
202 -27 109 0 158 8 246 42 159 62 288 180 368 339 l26 52 -32 1 c-18 1 -73 1
-122 1 -87 1 -90 0 -110 -28 -57 -80 -176 -162 -261 -180 -173 -35 -316 6
-436 125 -95 95 -129 175 -135 316 -7 184 99 349 276 429 62 28 112 38 185 37
141 -2 235 -46 341 -157 l61 -65 115 3 115 3 -21 45 c-56 119 -170 242 -277
300 -113 62 -191 83 -314 86 -138 4 -210 -12 -333 -72 l-93 -46 -273 273
c-150 151 -279 279 -288 286 -12 10 -28 -2 -94 -70z"/>
<path d="M1488 2445 c-2 -3 -22 -7 -44 -10 -21 -3 -52 -8 -67 -10 -81 -12
-317 -116 -376 -166 l-25 -20 76 -75 75 -76 104 50 c148 71 217 87 374 87 122
0 144 -2 220 -20 48 -11 155 -57 220 -94 210 -120 379 -360 411 -583 l6 -47
-296 0 -295 1 -35 49 c-38 52 -101 97 -150 108 -189 39 -351 -86 -349 -270 3
-247 295 -364 472 -188 22 21 42 47 46 59 3 11 14 20 23 21 9 0 196 1 415 1
l397 1 0 88 c0 533 -354 970 -875 1081 -49 10 -319 21 -327 13z"/>
</g>
</svg>
